<svg width="134" height="54" viewBox="0 0 134 54" fill="none" xmlns="http://www.w3.org/2000/svg">
<path d="M25.3954 1.09172L0.921204 11.6157" stroke="black" stroke-width="1.46961"/>
<path d="M49.1363 11.6945L24.8807 1.07602" stroke="black" stroke-width="1.46961"/>
<path d="M1.14008 11.1274V28.9772" stroke="black" stroke-width="1.46961"/>
<path d="M24.9119 52.7664L0.95282 42.4157" stroke="black" stroke-width="1.46961"/>
<path d="M49.1514 42.2897L24.5524 52.7664" stroke="black" stroke-width="1.46961"/>
<path d="M24.7712 38.8077L0.812134 28.4413" stroke="black" stroke-width="1.46961"/>
<path d="M48.5124 28.2839L24.4752 38.9024" stroke="black" stroke-width="1.46961"/>
<path d="M48.7924 27.7641V42.7938" stroke="black" stroke-width="1.46961"/>
<path d="M24.7246 52.924V14.9558" stroke="black" stroke-width="1.46961"/>
<path d="M10.7392 14.6879H38.6316" stroke="black" stroke-width="1.46961"/>
<path d="M0.5 42.4473L7.35215 39.1703" stroke="black" stroke-width="1.46961"/>
<path d="M48.8397 11.2219V18.1381" stroke="black" stroke-width="1.46961"/>
<path d="M48.8238 21.1156C49.2117 21.1156 49.5262 20.7982 49.5262 20.4067C49.5262 20.0151 49.2117 19.6977 48.8238 19.6977C48.4359 19.6977 48.1214 20.0151 48.1214 20.4067C48.1214 20.7982 48.4359 21.1156 48.8238 21.1156Z" fill="black"/>
<path d="M65.5083 6.80575C65.3702 6.64927 65.2091 6.5112 65.0251 6.39155C64.841 6.26269 64.6339 6.15223 64.4038 6.06019C64.1736 5.96814 63.9251 5.89451 63.6582 5.83928C63.4005 5.78406 63.1243 5.75644 62.8298 5.75644C61.9738 5.75644 61.3433 5.92212 60.9383 6.25348C60.5425 6.57564 60.3446 7.01745 60.3446 7.57892C60.3446 7.9655 60.4366 8.26925 60.6207 8.49015C60.814 8.71106 61.1132 8.89055 61.5182 9.02861C61.9232 9.16668 62.4386 9.30935 63.0645 9.45662C63.764 9.60389 64.3669 9.77877 64.8732 9.98127C65.3794 10.1838 65.7706 10.4599 66.0467 10.8097C66.3229 11.1502 66.4609 11.6151 66.4609 12.2041C66.4609 12.6552 66.3735 13.0463 66.1986 13.3777C66.0237 13.7091 65.7798 13.9852 65.4669 14.2061C65.1539 14.427 64.7811 14.5927 64.3485 14.7031C63.9159 14.8044 63.4419 14.855 62.9264 14.855C62.4202 14.855 61.9324 14.8044 61.4629 14.7031C61.0027 14.5927 60.5655 14.4362 60.1513 14.2337C59.7371 14.022 59.3505 13.7551 58.9916 13.4329L59.4748 12.646C59.6497 12.83 59.8568 13.0049 60.0961 13.1706C60.3446 13.3271 60.6161 13.4697 60.9107 13.5986C61.2144 13.7275 61.5366 13.8287 61.8771 13.9024C62.2269 13.9668 62.5859 13.999 62.9541 13.999C63.7364 13.999 64.3439 13.8563 64.7765 13.571C65.2183 13.2857 65.4393 12.8623 65.4393 12.3008C65.4393 11.8958 65.3288 11.5736 65.1079 11.3343C64.887 11.0858 64.5556 10.8833 64.1138 10.7268C63.672 10.5704 63.1289 10.4185 62.4846 10.2712C61.8035 10.1147 61.2282 9.93985 60.7588 9.74656C60.2894 9.55327 59.935 9.30014 59.6957 8.98719C59.4656 8.66504 59.3505 8.24164 59.3505 7.71698C59.3505 7.10949 59.4978 6.59865 59.7923 6.18445C60.0961 5.76104 60.5103 5.44349 61.0349 5.23179C61.5596 5.01088 62.1625 4.90043 62.8436 4.90043C63.2762 4.90043 63.6766 4.94645 64.0448 5.0385C64.4222 5.12134 64.7673 5.2456 65.0803 5.41128C65.4024 5.57696 65.7016 5.78406 65.9777 6.03258L65.5083 6.80575ZM71.302 14.427C71.2284 14.4546 71.1133 14.5052 70.9568 14.5789C70.8004 14.6525 70.6117 14.7169 70.3908 14.7722C70.1699 14.8274 69.9305 14.855 69.6728 14.855C69.4059 14.855 69.1528 14.8044 68.9135 14.7031C68.6833 14.6019 68.4993 14.45 68.3612 14.2475C68.2231 14.0358 68.1541 13.7781 68.1541 13.4743V8.32448H67.16V7.57892H68.1541V5.14895H69.0929V7.57892H70.7497V8.32448H69.0929V13.212C69.1113 13.4697 69.2034 13.663 69.3691 13.7919C69.544 13.9208 69.7418 13.9852 69.9628 13.9852C70.2205 13.9852 70.4552 13.9438 70.6669 13.8609C70.8786 13.7689 71.0075 13.7045 71.0535 13.6676L71.302 14.427ZM72.406 11.8037V7.57892H73.3448V11.6381C73.3448 12.4573 73.4829 13.0694 73.759 13.4743C74.0444 13.8793 74.4632 14.0818 75.0154 14.0818C75.3836 14.0818 75.738 14.0036 76.0786 13.8471C76.4283 13.6814 76.7367 13.4513 77.0036 13.1568C77.2705 12.853 77.473 12.5033 77.6111 12.1075V7.57892H78.5499V13.64C78.5499 13.7689 78.5776 13.8655 78.6328 13.93C78.688 13.9852 78.7708 14.0174 78.8813 14.0266V14.7722C78.7708 14.7814 78.6834 14.786 78.619 14.786C78.5545 14.7952 78.4947 14.7998 78.4395 14.7998C78.2554 14.7814 78.0943 14.7077 77.9563 14.5789C77.8274 14.45 77.7584 14.2935 77.7492 14.1095L77.7215 13.143C77.4086 13.6953 76.9806 14.1279 76.4375 14.4408C75.9037 14.7538 75.3238 14.9102 74.6979 14.9102C73.9431 14.9102 73.3725 14.6479 72.9859 14.1233C72.5993 13.5986 72.406 12.8254 72.406 11.8037ZM80.1895 11.1963C80.1895 10.5151 80.3275 9.89383 80.6037 9.33236C80.889 8.76169 81.2802 8.30607 81.7772 7.9655C82.2743 7.62494 82.8403 7.45466 83.4755 7.45466C84.0737 7.45466 84.6076 7.61573 85.077 7.93789C85.5557 8.25084 85.9284 8.63282 86.1954 9.08384V4.69333H87.1342V13.64C87.1342 13.7689 87.1618 13.8655 87.2171 13.93C87.2723 13.9852 87.3551 14.0174 87.4656 14.0266V14.7722C87.2815 14.7998 87.1388 14.809 87.0376 14.7998C86.8443 14.7906 86.674 14.7123 86.5267 14.5651C86.3794 14.4178 86.3058 14.2567 86.3058 14.0818V13.3777C86.0205 13.8471 85.6339 14.2199 85.1461 14.496C84.6582 14.7722 84.152 14.9102 83.6273 14.9102C83.1303 14.9102 82.6701 14.809 82.2467 14.6065C81.8325 14.404 81.4689 14.1279 81.1559 13.7781C80.8522 13.4283 80.6129 13.0325 80.438 12.5907C80.2723 12.1397 80.1895 11.6749 80.1895 11.1963ZM86.1954 12.3008V10.0779C86.0757 9.74656 85.8824 9.44741 85.6155 9.18049C85.3486 8.90435 85.0448 8.68805 84.7042 8.53157C84.3729 8.3659 84.0415 8.28306 83.7102 8.28306C83.3236 8.28306 82.9738 8.3659 82.6609 8.53157C82.3479 8.68805 82.0764 8.90435 81.8463 9.18049C81.6254 9.45662 81.4551 9.76957 81.3354 10.1193C81.2158 10.4691 81.1559 10.8281 81.1559 11.1963C81.1559 11.5828 81.2204 11.951 81.3492 12.3008C81.4873 12.6506 81.6806 12.9635 81.9291 13.2396C82.1776 13.5066 82.463 13.7137 82.7851 13.8609C83.1073 14.0082 83.457 14.0818 83.8344 14.0818C84.0737 14.0818 84.3223 14.0358 84.58 13.9438C84.8377 13.8517 85.0816 13.7275 85.3117 13.571C85.5511 13.4053 85.7489 13.212 85.9054 12.9911C86.0619 12.7702 86.1585 12.5401 86.1954 12.3008ZM92.3679 14.9102C91.8524 14.9102 91.3738 14.8136 90.932 14.6203C90.4902 14.4178 90.1082 14.1463 89.7861 13.8057C89.4639 13.4559 89.2108 13.0555 89.0267 12.6045C88.8518 12.1535 88.7644 11.6703 88.7644 11.1548C88.7644 10.4829 88.9162 9.86622 89.22 9.30475C89.5329 8.74328 89.9609 8.29686 90.504 7.9655C91.0471 7.62494 91.6638 7.45466 92.3541 7.45466C93.0628 7.45466 93.6795 7.62494 94.2042 7.9655C94.738 8.30607 95.1568 8.75708 95.4606 9.31855C95.7643 9.87082 95.9162 10.4783 95.9162 11.141C95.9162 11.2147 95.9162 11.2883 95.9162 11.3619C95.9162 11.4264 95.9116 11.477 95.9024 11.5138H89.7446C89.7907 12.0293 89.9333 12.4895 90.1726 12.8945C90.4212 13.2903 90.7387 13.6078 91.1253 13.8471C91.5211 14.0772 91.9491 14.1923 92.4093 14.1923C92.8787 14.1923 93.3206 14.0726 93.7347 13.8333C94.1582 13.594 94.4527 13.2811 94.6184 12.8945L95.433 13.1154C95.2857 13.4559 95.0602 13.7643 94.7564 14.0404C94.4527 14.3166 94.0937 14.5329 93.6795 14.6893C93.2745 14.8366 92.8373 14.9102 92.3679 14.9102ZM89.717 10.8373H95.0326C94.9958 10.3126 94.8531 9.85241 94.6046 9.45662C94.3653 9.06083 94.0477 8.75248 93.6519 8.53157C93.2653 8.30146 92.8373 8.18641 92.3679 8.18641C91.8985 8.18641 91.4705 8.30146 91.0839 8.53157C90.6973 8.75248 90.3797 9.06543 90.1312 9.47043C89.8919 9.86622 89.7538 10.3218 89.717 10.8373ZM103.412 14.7722H102.473V10.7544C102.473 9.90764 102.349 9.29094 102.1 8.90435C101.852 8.50856 101.461 8.31067 100.927 8.31067C100.559 8.31067 100.195 8.40271 99.8361 8.5868C99.4771 8.76169 99.1596 9.0056 98.8834 9.31855C98.6165 9.6223 98.4232 9.97207 98.3036 10.3679V14.7722H97.3647V7.57892H98.2207V9.2081C98.414 8.85833 98.6671 8.55459 98.9801 8.29686C99.293 8.02993 99.6474 7.82283 100.043 7.67556C100.439 7.52829 100.849 7.45466 101.272 7.45466C101.668 7.45466 102.004 7.52829 102.28 7.67556C102.556 7.82283 102.777 8.03454 102.943 8.31067C103.108 8.5776 103.228 8.90435 103.302 9.29094C103.375 9.66832 103.412 10.0917 103.412 10.5611V14.7722ZM108.798 14.427C108.725 14.4546 108.61 14.5052 108.453 14.5789C108.297 14.6525 108.108 14.7169 107.887 14.7722C107.666 14.8274 107.427 14.855 107.169 14.855C106.902 14.855 106.649 14.8044 106.41 14.7031C106.18 14.6019 105.996 14.45 105.858 14.2475C105.719 14.0358 105.65 13.7781 105.65 13.4743V8.32448H104.656V7.57892H105.65V5.14895H106.589V7.57892H108.246V8.32448H106.589V13.212C106.608 13.4697 106.7 13.663 106.865 13.7919C107.04 13.9208 107.238 13.9852 107.459 13.9852C107.717 13.9852 107.952 13.9438 108.163 13.8609C108.375 13.7689 108.504 13.7045 108.55 13.6676L108.798 14.427ZM66.7371 21.8255H63.244V30.7722H62.2775V21.8255H58.7845V20.9695H66.7371V21.8255ZM69.5681 30.9102C69.0526 30.9102 68.574 30.8136 68.1322 30.6203C67.6904 30.4178 67.3084 30.1463 66.9862 29.8057C66.6641 29.4559 66.411 29.0555 66.2269 28.6045C66.052 28.1535 65.9646 27.6703 65.9646 27.1548C65.9646 26.4829 66.1164 25.8662 66.4202 25.3047C66.7331 24.7433 67.1611 24.2969 67.7042 23.9655C68.2472 23.6249 68.8639 23.4547 69.5543 23.4547C70.263 23.4547 70.8797 23.6249 71.4044 23.9655C71.9382 24.3061 72.357 24.7571 72.6608 25.3186C72.9645 25.8708 73.1164 26.4783 73.1164 27.141C73.1164 27.2147 73.1164 27.2883 73.1164 27.3619C73.1164 27.4264 73.1118 27.477 73.1026 27.5138H66.9448C66.9908 28.0293 67.1335 28.4895 67.3728 28.8945C67.6213 29.2903 67.9389 29.6078 68.3255 29.8471C68.7213 30.0772 69.1493 30.1923 69.6095 30.1923C70.0789 30.1923 70.5207 30.0726 70.9349 29.8333C71.3583 29.594 71.6529 29.2811 71.8186 28.8945L72.6332 29.1154C72.4859 29.4559 72.2604 29.7643 71.9566 30.0404C71.6529 30.3166 71.2939 30.5329 70.8797 30.6893C70.4747 30.8366 70.0375 30.9102 69.5681 30.9102ZM66.9172 26.8373H72.2328C72.1959 26.3126 72.0533 25.8524 71.8048 25.4566C71.5654 25.0608 71.2479 24.7525 70.8521 24.5316C70.4655 24.3015 70.0375 24.1864 69.5681 24.1864C69.0987 24.1864 68.6706 24.3015 68.2841 24.5316C67.8975 24.7525 67.5799 25.0654 67.3314 25.4704C67.0921 25.8662 66.954 26.3218 66.9172 26.8373ZM77.6852 30.9102C77.1605 30.9102 76.6773 30.8136 76.2355 30.6203C75.8029 30.4178 75.4209 30.1417 75.0895 29.7919C74.7674 29.4421 74.5143 29.0417 74.3302 28.5907C74.1553 28.1397 74.0679 27.6611 74.0679 27.1548C74.0679 26.4737 74.2197 25.8524 74.5235 25.2909C74.8272 24.7295 75.2506 24.2831 75.7937 23.9517C76.3367 23.6203 76.9626 23.4547 77.6714 23.4547C78.3433 23.4547 78.937 23.6111 79.4524 23.9241C79.9679 24.2278 80.3499 24.642 80.5984 25.1667L79.6872 25.4566C79.4847 25.0884 79.1993 24.8031 78.8311 24.6006C78.4722 24.3889 78.0718 24.2831 77.63 24.2831C77.1513 24.2831 76.7141 24.4073 76.3183 24.6558C75.9225 24.9044 75.605 25.2449 75.3657 25.6775C75.1356 26.1101 75.0205 26.6026 75.0205 27.1548C75.0205 27.6979 75.1402 28.1903 75.3795 28.6321C75.6188 29.074 75.9364 29.4283 76.3321 29.6953C76.7279 29.953 77.1651 30.0818 77.6438 30.0818C77.9567 30.0818 78.2559 30.0266 78.5412 29.9162C78.8357 29.8057 79.0889 29.6584 79.3006 29.4743C79.5215 29.2811 79.6687 29.074 79.7424 28.853L80.6674 29.1292C80.5386 29.4697 80.3223 29.7781 80.0185 30.0542C79.724 30.3212 79.3742 30.5329 78.9692 30.6893C78.5734 30.8366 78.1454 30.9102 77.6852 30.9102ZM88.1897 30.7722H87.2508V26.7544C87.2508 25.9445 87.1081 25.337 86.8228 24.932C86.5375 24.5178 86.1279 24.3107 85.594 24.3107C85.2442 24.3107 84.8945 24.4027 84.5447 24.5868C84.2041 24.7617 83.9004 25.0056 83.6335 25.3186C83.3758 25.6223 83.1917 25.9721 83.0812 26.3679V30.7722H82.1424V20.6933H83.0812V25.2081C83.3665 24.6742 83.7623 24.2508 84.2686 23.9379C84.784 23.6157 85.3317 23.4547 85.9116 23.4547C86.3258 23.4547 86.6755 23.5283 86.9609 23.6756C87.2554 23.8228 87.4901 24.0391 87.665 24.3245C87.8491 24.6006 87.9826 24.9274 88.0654 25.3047C88.1482 25.6729 88.1897 26.0917 88.1897 26.5611V30.7722ZM96.239 30.7722H95.3002V26.7544C95.3002 25.9076 95.1759 25.2909 94.9274 24.9044C94.6789 24.5086 94.2877 24.3107 93.7538 24.3107C93.3857 24.3107 93.0221 24.4027 92.6631 24.5868C92.3041 24.7617 91.9866 25.0056 91.7105 25.3186C91.4435 25.6223 91.2502 25.9721 91.1306 26.3679V30.7722H90.1917V23.5789H91.0477V25.2081C91.241 24.8583 91.4942 24.5546 91.8071 24.2969C92.1201 24.0299 92.4744 23.8228 92.8702 23.6756C93.266 23.5283 93.6756 23.4547 94.099 23.4547C94.4948 23.4547 94.8308 23.5283 95.1069 23.6756C95.383 23.8228 95.6039 24.0345 95.7696 24.3107C95.9353 24.5776 96.0549 24.9044 96.1286 25.2909C96.2022 25.6683 96.239 26.0917 96.239 26.5611V30.7722ZM98.2411 30.7722V23.5789H99.18V30.7722H98.2411ZM98.2411 22.074V20.6933H99.18V22.074H98.2411ZM104.368 30.9102C103.843 30.9102 103.36 30.8136 102.918 30.6203C102.486 30.4178 102.104 30.1417 101.772 29.7919C101.45 29.4421 101.197 29.0417 101.013 28.5907C100.838 28.1397 100.751 27.6611 100.751 27.1548C100.751 26.4737 100.903 25.8524 101.206 25.2909C101.51 24.7295 101.934 24.2831 102.477 23.9517C103.02 23.6203 103.646 23.4547 104.354 23.4547C105.026 23.4547 105.62 23.6111 106.135 23.9241C106.651 24.2278 107.033 24.642 107.281 25.1667L106.37 25.4566C106.168 25.0884 105.882 24.8031 105.514 24.6006C105.155 24.3889 104.755 24.2831 104.313 24.2831C103.834 24.2831 103.397 24.4073 103.001 24.6558C102.605 24.9044 102.288 25.2449 102.049 25.6775C101.818 26.1101 101.703 26.6026 101.703 27.1548C101.703 27.6979 101.823 28.1903 102.062 28.6321C102.302 29.074 102.619 29.4283 103.015 29.6953C103.411 29.953 103.848 30.0818 104.327 30.0818C104.64 30.0818 104.939 30.0266 105.224 29.9162C105.519 29.8057 105.772 29.6584 105.983 29.4743C106.204 29.2811 106.352 29.074 106.425 28.853L107.35 29.1292C107.221 29.4697 107.005 29.7781 106.701 30.0542C106.407 30.3212 106.057 30.5329 105.652 30.6893C105.256 30.8366 104.828 30.9102 104.368 30.9102ZM108.245 28.7012C108.245 28.2502 108.374 27.8636 108.632 27.5414C108.89 27.2101 109.244 26.9569 109.695 26.7821C110.155 26.598 110.685 26.5059 111.283 26.5059C111.633 26.5059 111.996 26.5335 112.374 26.5888C112.751 26.644 113.087 26.7268 113.381 26.8373V26.2298C113.381 25.6223 113.202 25.1391 112.843 24.7801C112.484 24.4211 111.987 24.2416 111.352 24.2416C110.965 24.2416 110.583 24.3153 110.206 24.4625C109.838 24.6006 109.451 24.8077 109.046 25.0838L108.687 24.4211C109.157 24.099 109.617 23.8597 110.068 23.7032C110.519 23.5375 110.979 23.4547 111.449 23.4547C112.332 23.4547 113.032 23.7078 113.547 24.214C114.063 24.7203 114.32 25.4198 114.32 26.3126V29.64C114.32 29.7689 114.348 29.8655 114.403 29.93C114.458 29.9852 114.546 30.0174 114.665 30.0266V30.7722C114.564 30.7814 114.477 30.7906 114.403 30.7998C114.33 30.809 114.274 30.809 114.237 30.7998C114.007 30.7906 113.832 30.7169 113.713 30.5789C113.593 30.4408 113.529 30.2935 113.52 30.1371L113.506 29.6124C113.184 30.0266 112.765 30.3488 112.249 30.5789C111.734 30.7998 111.209 30.9102 110.675 30.9102C110.215 30.9102 109.796 30.8136 109.419 30.6203C109.051 30.4178 108.761 30.1509 108.549 29.8195C108.347 29.479 108.245 29.1062 108.245 28.7012ZM113.064 29.2534C113.165 29.1246 113.243 29.0003 113.299 28.8807C113.354 28.761 113.381 28.6552 113.381 28.5631V27.5138C113.069 27.3941 112.742 27.3021 112.401 27.2377C112.07 27.1732 111.734 27.141 111.393 27.141C110.721 27.141 110.178 27.2745 109.764 27.5414C109.35 27.8083 109.143 28.1719 109.143 28.6321C109.143 28.8991 109.212 29.1522 109.35 29.3915C109.488 29.6216 109.69 29.8149 109.957 29.9714C110.224 30.1187 110.537 30.1923 110.896 30.1923C111.347 30.1923 111.766 30.1049 112.153 29.93C112.548 29.7551 112.852 29.5296 113.064 29.2534ZM116.39 20.6933H117.329V29.143C117.329 29.502 117.394 29.7367 117.522 29.8471C117.651 29.9576 117.808 30.0128 117.992 30.0128C118.157 30.0128 118.323 29.9944 118.489 29.9576C118.655 29.9208 118.797 29.8839 118.917 29.8471L119.083 30.6065C118.908 30.6801 118.691 30.74 118.434 30.786C118.185 30.832 117.969 30.855 117.785 30.855C117.361 30.855 117.021 30.7308 116.763 30.4822C116.514 30.2337 116.39 29.8931 116.39 29.4605V20.6933ZM59.1296 41.8018C59.1296 41.2035 59.2309 40.619 59.4334 40.0483C59.6451 39.4685 59.9488 38.9438 60.3446 38.4744C60.7404 37.9958 61.2282 37.6184 61.8081 37.3422C62.388 37.0569 63.0461 36.9142 63.7825 36.9142C64.6569 36.9142 65.4024 37.1167 66.0191 37.5217C66.645 37.9175 67.1053 38.4284 67.3998 39.0543L66.6404 39.5237C66.4287 39.0911 66.1618 38.7505 65.8396 38.502C65.5175 38.2443 65.1723 38.0602 64.8041 37.9497C64.4452 37.8393 64.0862 37.7841 63.7272 37.7841C63.1381 37.7841 62.6181 37.9037 62.1671 38.143C61.7161 38.3731 61.3341 38.6861 61.0211 39.0819C60.7174 39.4685 60.4873 39.9057 60.3308 40.3935C60.1743 40.8721 60.0961 41.36 60.0961 41.857C60.0961 42.4001 60.1881 42.9201 60.3722 43.4172C60.5563 43.9142 60.814 44.356 61.1454 44.7426C61.4767 45.12 61.8633 45.4237 62.3051 45.6538C62.7562 45.8747 63.244 45.9852 63.7686 45.9852C64.1368 45.9852 64.5142 45.9208 64.9008 45.7919C65.2874 45.663 65.6464 45.4651 65.9777 45.1982C66.3183 44.9313 66.5898 44.5861 66.7923 44.1627L67.5931 44.5769C67.3906 45.0648 67.0776 45.479 66.6542 45.8195C66.2308 46.1601 65.7568 46.4178 65.2322 46.5927C64.7167 46.7676 64.2105 46.855 63.7134 46.855C63.0415 46.855 62.4248 46.7123 61.8633 46.427C61.3019 46.1325 60.814 45.7459 60.3998 45.2672C59.9948 44.7794 59.6819 44.2364 59.461 43.6381C59.2401 43.0306 59.1296 42.4185 59.1296 41.8018ZM72.1154 46.9102C71.6 46.9102 71.1213 46.8136 70.6795 46.6203C70.2469 46.4178 69.8695 46.1463 69.5474 45.8057C69.2344 45.4559 68.9905 45.0601 68.8156 44.6183C68.6407 44.1673 68.5533 43.6933 68.5533 43.1963C68.5533 42.6808 68.6407 42.2022 68.8156 41.7604C68.9905 41.3093 69.239 40.9136 69.5612 40.573C69.8833 40.2232 70.2607 39.9517 70.6933 39.7584C71.1351 39.5559 71.6138 39.4547 72.1292 39.4547C72.6447 39.4547 73.1187 39.5559 73.5513 39.7584C73.9839 39.9517 74.3613 40.2232 74.6834 40.573C75.0056 40.9136 75.2541 41.3093 75.429 41.7604C75.6039 42.2022 75.6913 42.6808 75.6913 43.1963C75.6913 43.6933 75.6039 44.1673 75.429 44.6183C75.2541 45.0601 75.0056 45.4559 74.6834 45.8057C74.3705 46.1463 73.9931 46.4178 73.5513 46.6203C73.1187 46.8136 72.6401 46.9102 72.1154 46.9102ZM69.506 43.2101C69.506 43.7439 69.621 44.2318 69.8511 44.6736C70.0904 45.1062 70.408 45.4513 70.8038 45.7091C71.1996 45.9576 71.6368 46.0818 72.1154 46.0818C72.594 46.0818 73.0312 45.953 73.427 45.6953C73.8228 45.4375 74.1404 45.0878 74.3797 44.646C74.619 44.1949 74.7387 43.7071 74.7387 43.1824C74.7387 42.6486 74.619 42.1608 74.3797 41.7189C74.1404 41.2771 73.8228 40.9274 73.427 40.6696C73.0312 40.4119 72.594 40.2831 72.1154 40.2831C71.6368 40.2831 71.1996 40.4165 70.8038 40.6834C70.4172 40.9504 70.1042 41.3047 69.8649 41.7466C69.6256 42.1792 69.506 42.667 69.506 43.2101ZM87.9616 46.7722H87.0228V42.7544C87.0228 41.9168 86.8893 41.3001 86.6224 40.9044C86.3555 40.5086 85.9597 40.3107 85.435 40.3107C84.892 40.3107 84.4041 40.504 83.9715 40.8905C83.5481 41.2771 83.249 41.7742 83.0741 42.3817V46.7722H82.1352V42.7544C82.1352 41.9076 82.0064 41.2909 81.7487 40.9044C81.4909 40.5086 81.0951 40.3107 80.5613 40.3107C80.0274 40.3107 79.5442 40.4994 79.1116 40.8767C78.679 41.2541 78.3752 41.7512 78.2003 42.3679V46.7722H77.2615V39.5789H78.1175V41.2081C78.4213 40.6466 78.8078 40.214 79.2773 39.9103C79.7559 39.6065 80.2852 39.4547 80.865 39.4547C81.4633 39.4547 81.9465 39.6249 82.3147 39.9655C82.6829 40.3061 82.9084 40.7525 82.9912 41.3047C83.3226 40.6973 83.7184 40.237 84.1786 39.9241C84.648 39.6111 85.1773 39.4547 85.7664 39.4547C86.1714 39.4547 86.5119 39.5283 86.7881 39.6756C87.0734 39.8228 87.2989 40.0345 87.4646 40.3107C87.6395 40.5776 87.7637 40.9044 87.8374 41.2909C87.9202 41.6683 87.9616 42.0917 87.9616 42.5611V46.7722ZM100.649 46.7722H99.7103V42.7544C99.7103 41.9168 99.5769 41.3001 99.3099 40.9044C99.043 40.5086 98.6472 40.3107 98.1226 40.3107C97.5795 40.3107 97.0917 40.504 96.6591 40.8905C96.2357 41.2771 95.9365 41.7742 95.7616 42.3817V46.7722H94.8228V42.7544C94.8228 41.9076 94.6939 41.2909 94.4362 40.9044C94.1785 40.5086 93.7827 40.3107 93.2488 40.3107C92.715 40.3107 92.2317 40.4994 91.7991 40.8767C91.3665 41.2541 91.0628 41.7512 90.8879 42.3679V46.7722H89.949V39.5789H90.805V41.2081C91.1088 40.6466 91.4954 40.214 91.9648 39.9103C92.4434 39.6065 92.9727 39.4547 93.5526 39.4547C94.1509 39.4547 94.6341 39.6249 95.0023 39.9655C95.3704 40.3061 95.5959 40.7525 95.6788 41.3047C96.0101 40.6973 96.4059 40.237 96.8662 39.9241C97.3356 39.6111 97.8648 39.4547 98.4539 39.4547C98.8589 39.4547 99.1995 39.5283 99.4756 39.6756C99.7609 39.8228 99.9865 40.0345 100.152 40.3107C100.327 40.5776 100.451 40.9044 100.525 41.2909C100.608 41.6683 100.649 42.0917 100.649 42.5611V46.7722ZM102.568 43.8037V39.5789H103.506V43.6381C103.506 44.4573 103.644 45.0694 103.921 45.4743C104.206 45.8793 104.625 46.0818 105.177 46.0818C105.545 46.0818 105.9 46.0036 106.24 45.8471C106.59 45.6814 106.898 45.4513 107.165 45.1568C107.432 44.853 107.635 44.5033 107.773 44.1075V39.5789H108.711V45.64C108.711 45.7689 108.739 45.8655 108.794 45.93C108.85 45.9852 108.932 46.0174 109.043 46.0266V46.7722C108.932 46.7814 108.845 46.786 108.781 46.786C108.716 46.7952 108.656 46.7998 108.601 46.7998C108.417 46.7814 108.256 46.7077 108.118 46.5789C107.989 46.45 107.92 46.2935 107.911 46.1095L107.883 45.143C107.57 45.6953 107.142 46.1279 106.599 46.4408C106.065 46.7538 105.485 46.9102 104.859 46.9102C104.105 46.9102 103.534 46.6479 103.147 46.1233C102.761 45.5986 102.568 44.8254 102.568 43.8037ZM116.882 46.7722H115.943V42.7544C115.943 41.9076 115.818 41.2909 115.57 40.9044C115.321 40.5086 114.93 40.3107 114.396 40.3107C114.028 40.3107 113.665 40.4027 113.306 40.5868C112.947 40.7617 112.629 41.0056 112.353 41.3186C112.086 41.6223 111.893 41.9721 111.773 42.3679V46.7722H110.834V39.5789H111.69V41.2081C111.884 40.8583 112.137 40.5546 112.45 40.2969C112.763 40.0299 113.117 39.8228 113.513 39.6756C113.909 39.5283 114.318 39.4547 114.742 39.4547C115.137 39.4547 115.473 39.5283 115.749 39.6756C116.026 39.8228 116.246 40.0345 116.412 40.3107C116.578 40.5776 116.697 40.9044 116.771 41.2909C116.845 41.6683 116.882 42.0917 116.882 42.5611V46.7722ZM118.884 46.7722V39.5789H119.822V46.7722H118.884ZM118.884 38.074V36.6933H119.822V38.074H118.884ZM125.342 46.427C125.268 46.4546 125.153 46.5052 124.997 46.5789C124.84 46.6525 124.652 46.7169 124.431 46.7722C124.21 46.8274 123.971 46.855 123.713 46.855C123.446 46.855 123.193 46.8044 122.953 46.7031C122.723 46.6019 122.539 46.45 122.401 46.2475C122.263 46.0358 122.194 45.7781 122.194 45.4743V40.3245H121.2V39.5789H122.194V37.149H123.133V39.5789H124.79V40.3245H123.133V45.212C123.151 45.4697 123.243 45.663 123.409 45.7919C123.584 45.9208 123.782 45.9852 124.003 45.9852C124.26 45.9852 124.495 45.9438 124.707 45.8609C124.919 45.7689 125.047 45.7045 125.093 45.6676L125.342 46.427ZM126.929 48.9812C127.058 48.9904 127.182 48.995 127.302 48.995C127.422 49.0042 127.509 48.9996 127.564 48.9812C127.675 48.9628 127.781 48.8984 127.882 48.7879C127.983 48.6775 128.103 48.4658 128.241 48.1528C128.379 47.8399 128.572 47.3797 128.821 46.7722L125.687 39.5789H126.681L129.318 45.8057L131.748 39.5789H132.687L128.959 48.857C128.894 49.0319 128.798 49.1929 128.669 49.3402C128.54 49.4967 128.379 49.6163 128.186 49.6992C128.002 49.7912 127.771 49.8418 127.495 49.851C127.412 49.8603 127.325 49.8603 127.233 49.851C127.15 49.851 127.049 49.8418 126.929 49.8234V48.9812Z" fill="black"/>
</svg>
